<svg width="1200" height="300" viewBox="0 0 1200 300" xmlns="http://www.w3.org/2000/svg">

<defs>
  <linearGradient id="sky" x1="0" y1="0" x2="0" y2="1">
    <stop offset="0%" stop-color="#140c2a"/>
    <stop offset="40%" stop-color="#341c46"/>
    <stop offset="72%" stop-color="#7a3a58"/>
    <stop offset="100%" stop-color="#e8935f"/>
  </linearGradient>
  <radialGradient id="sunGlow" cx="50%" cy="50%" r="50%">
    <stop offset="0%" stop-color="#ffedc2" stop-opacity="0.85"/>
    <stop offset="55%" stop-color="#ffb066" stop-opacity="0.28"/>
    <stop offset="100%" stop-color="#ffb066" stop-opacity="0"/>
  </radialGradient>
</defs>

<rect x="0" y="0" width="1200" height="300" fill="url(#sky)"/>
<rect x="228" y="3" width="3" height="3" fill="#fff6df"><animate attributeName="opacity" values="0.15;1;0.15" dur="2.69s" begin="0.67s" repeatCount="indefinite"/></rect>
<rect x="209" y="86" width="3" height="3" fill="#fff6df"><animate attributeName="opacity" values="0.15;1;0.15" dur="4.23s" begin="0.26s" repeatCount="indefinite"/></rect>
<rect x="864" y="4" width="2" height="2" fill="#fff6df"><animate attributeName="opacity" values="0.15;1;0.15" dur="2.23s" begin="0.7s" repeatCount="indefinite"/></rect>
<rect x="54" y="71" width="2" height="2" fill="#fff6df"><animate attributeName="opacity" values="0.15;1;0.15" dur="3.79s" begin="2.1s" repeatCount="indefinite"/></rect>
<rect x="859" y="28" width="2" height="2" fill="#fff6df"><animate attributeName="opacity" values="0.15;1;0.15" dur="3.47s" begin="2.43s" repeatCount="indefinite"/></rect>
<rect x="13" y="20" width="3" height="3" fill="#fff6df"><animate attributeName="opacity" values="0.15;1;0.15" dur="3.06s" begin="0.83s" repeatCount="indefinite"/></rect>
<rect x="440" y="43" width="2" height="2" fill="#fff6df"><animate attributeName="opacity" values="0.15;1;0.15" dur="2.23s" begin="0.29s" repeatCount="indefinite"/></rect>
<rect x="704" y="77" width="2" height="2" fill="#fff6df"><animate attributeName="opacity" values="0.15;1;0.15" dur="4.02s" begin="2.19s" repeatCount="indefinite"/></rect>
<rect x="1098" y="15" width="2" height="2" fill="#fff6df"><animate attributeName="opacity" values="0.15;1;0.15" dur="2.2s" begin="0.88s" repeatCount="indefinite"/></rect>
<rect x="740" y="73" width="2" height="2" fill="#fff6df"><animate attributeName="opacity" values="0.15;1;0.15" dur="3.76s" begin="0.14s" repeatCount="indefinite"/></rect>
<rect x="466" y="37" width="2" height="2" fill="#fff6df"><animate attributeName="opacity" values="0.15;1;0.15" dur="4.14s" begin="2.6s" repeatCount="indefinite"/></rect>
<rect x="778" y="35" width="2" height="2" fill="#fff6df"><animate attributeName="opacity" values="0.15;1;0.15" dur="3.59s" begin="1.09s" repeatCount="indefinite"/></rect>
<rect x="758" y="45" width="2" height="2" fill="#fff6df"><animate attributeName="opacity" values="0.15;1;0.15" dur="3.68s" begin="2.11s" repeatCount="indefinite"/></rect>
<rect x="146" y="77" width="3" height="3" fill="#fff6df"><animate attributeName="opacity" values="0.15;1;0.15" dur="2.43s" begin="2.19s" repeatCount="indefinite"/></rect>
<rect x="334" y="59" width="2" height="2" fill="#fff6df"><animate attributeName="opacity" values="0.15;1;0.15" dur="2.67s" begin="2.78s" repeatCount="indefinite"/></rect>
<rect x="1140" y="28" width="3" height="3" fill="#fff6df"><animate attributeName="opacity" values="0.15;1;0.15" dur="2.81s" begin="2.3s" repeatCount="indefinite"/></rect>
<rect x="114" y="29" width="2" height="2" fill="#fff6df"><animate attributeName="opacity" values="0.15;1;0.15" dur="4.01s" begin="1.2s" repeatCount="indefinite"/></rect>
<rect x="135" y="27" width="3" height="3" fill="#fff6df"><animate attributeName="opacity" values="0.15;1;0.15" dur="4.19s" begin="0.94s" repeatCount="indefinite"/></rect>
<rect x="1022" y="50" width="3" height="3" fill="#fff6df"><animate attributeName="opacity" values="0.15;1;0.15" dur="3.15s" begin="0.79s" repeatCount="indefinite"/></rect>
<rect x="505" y="95" width="3" height="3" fill="#fff6df"><animate attributeName="opacity" values="0.15;1;0.15" dur="3.35s" begin="2.24s" repeatCount="indefinite"/></rect>
<rect x="877" y="74" width="2" height="2" fill="#fff6df"><animate attributeName="opacity" values="0.15;1;0.15" dur="2.9s" begin="2.99s" repeatCount="indefinite"/></rect>
<rect x="283" y="65" width="2" height="2" fill="#fff6df"><animate attributeName="opacity" values="0.15;1;0.15" dur="2.23s" begin="0.14s" repeatCount="indefinite"/></rect>
<rect x="224" y="19" width="3" height="3" fill="#fff6df"><animate attributeName="opacity" values="0.15;1;0.15" dur="2.4s" begin="2.04s" repeatCount="indefinite"/></rect>
<rect x="130" y="49" width="2" height="2" fill="#fff6df"><animate attributeName="opacity" values="0.15;1;0.15" dur="3.49s" begin="1.4s" repeatCount="indefinite"/></rect>
<rect x="514" y="70" width="2" height="2" fill="#fff6df"><animate attributeName="opacity" values="0.15;1;0.15" dur="3.7s" begin="0.34s" repeatCount="indefinite"/></rect>
<rect x="1099" y="96" width="2" height="2" fill="#fff6df"><animate attributeName="opacity" values="0.15;1;0.15" dur="3.92s" begin="1.02s" repeatCount="indefinite"/></rect>
<rect x="601" y="55" width="2" height="2" fill="#fff6df"><animate attributeName="opacity" values="0.15;1;0.15" dur="3.13s" begin="2.86s" repeatCount="indefinite"/></rect>
<rect x="539" y="64" width="2" height="2" fill="#fff6df"><animate attributeName="opacity" values="0.15;1;0.15" dur="3.27s" begin="0.32s" repeatCount="indefinite"/></rect>
<rect x="611" y="81" width="3" height="3" fill="#fff6df"><animate attributeName="opacity" values="0.15;1;0.15" dur="3.52s" begin="0.46s" repeatCount="indefinite"/></rect>
<rect x="330" y="69" width="3" height="3" fill="#fff6df"><animate attributeName="opacity" values="0.15;1;0.15" dur="4.3s" begin="1.8s" repeatCount="indefinite"/></rect>
<rect x="1000" y="2" width="2" height="2" fill="#fff6df"><animate attributeName="opacity" values="0.15;1;0.15" dur="4.32s" begin="2.64s" repeatCount="indefinite"/></rect>
<rect x="629" y="30" width="2" height="2" fill="#fff6df"><animate attributeName="opacity" values="0.15;1;0.15" dur="2.6s" begin="1.7s" repeatCount="indefinite"/></rect>
<rect x="161" y="10" width="3" height="3" fill="#fff6df"><animate attributeName="opacity" values="0.15;1;0.15" dur="3.21s" begin="0.21s" repeatCount="indefinite"/></rect>
<rect x="1090" y="16" width="2" height="2" fill="#fff6df"><animate attributeName="opacity" values="0.15;1;0.15" dur="3.65s" begin="2.84s" repeatCount="indefinite"/></rect>
<rect x="338" y="33" width="3" height="3" fill="#fff6df"><animate attributeName="opacity" values="0.15;1;0.15" dur="4.18s" begin="1.27s" repeatCount="indefinite"/></rect>
<rect x="433" y="69" width="3" height="3" fill="#fff6df"><animate attributeName="opacity" values="0.15;1;0.15" dur="3.72s" begin="2.14s" repeatCount="indefinite"/></rect>
<rect x="817" y="85" width="3" height="3" fill="#fff6df"><animate attributeName="opacity" values="0.15;1;0.15" dur="2.93s" begin="2.7s" repeatCount="indefinite"/></rect>
<rect x="924" y="15" width="2" height="2" fill="#fff6df"><animate attributeName="opacity" values="0.15;1;0.15" dur="2.56s" begin="1.01s" repeatCount="indefinite"/></rect>
<rect x="1134" y="29" width="3" height="3" fill="#fff6df"><animate attributeName="opacity" values="0.15;1;0.15" dur="2.55s" begin="0.21s" repeatCount="indefinite"/></rect>
<rect x="120" y="29" width="2" height="2" fill="#fff6df"><animate attributeName="opacity" values="0.15;1;0.15" dur="4.26s" begin="2.58s" repeatCount="indefinite"/></rect>
<circle cx="768.0" cy="102.00000000000001" r="73" fill="url(#sunGlow)"><animate attributeName="r" values="68;78;68" dur="5s" repeatCount="indefinite"/></circle>
<circle cx="768.0" cy="102.00000000000001" r="26" fill="#fff3d6"/>
<polygon points="768.0,102.00000000000001 634.0,300 706.0,300" fill="#ffe3ad" opacity="0.10"><animate attributeName="opacity" values="0.06;0.16;0.06" dur="4s" repeatCount="indefinite"/></polygon>
<polygon points="768.0,102.00000000000001 697.0,300 769.0,300" fill="#ffe3ad" opacity="0.10"><animate attributeName="opacity" values="0.06;0.16;0.06" dur="5s" repeatCount="indefinite"/></polygon>
<polygon points="768.0,102.00000000000001 760.0,300 832.0,300" fill="#ffe3ad" opacity="0.10"><animate attributeName="opacity" values="0.06;0.16;0.06" dur="6s" repeatCount="indefinite"/></polygon>
<polygon points="768.0,102.00000000000001 823.0,300 895.0,300" fill="#ffe3ad" opacity="0.10"><animate attributeName="opacity" values="0.06;0.16;0.06" dur="7s" repeatCount="indefinite"/></polygon>
<rect x="0.0" y="240.0" width="19.0" height="62.0" fill="#5a3e6e" opacity="0.85"/>
<rect x="18.0" y="240.0" width="19.0" height="62.0" fill="#5a3e6e" opacity="0.85"/>
<rect x="36.0" y="240.0" width="19.0" height="62.0" fill="#5a3e6e" opacity="0.85"/>
<rect x="54.0" y="240.0" width="19.0" height="62.0" fill="#5a3e6e" opacity="0.85"/>
<rect x="72.0" y="240.0" width="19.0" height="62.0" fill="#5a3e6e" opacity="0.85"/>
<rect x="90.0" y="240.0" width="19.0" height="62.0" fill="#5a3e6e" opacity="0.85"/>
<rect x="108.0" y="246.0" width="19.0" height="56.0" fill="#5a3e6e" opacity="0.85"/>
<rect x="126.0" y="246.0" width="19.0" height="56.0" fill="#5a3e6e" opacity="0.85"/>
<rect x="144.0" y="246.0" width="19.0" height="56.0" fill="#5a3e6e" opacity="0.85"/>
<rect x="162.0" y="246.0" width="19.0" height="56.0" fill="#5a3e6e" opacity="0.85"/>
<rect x="180.0" y="246.0" width="19.0" height="56.0" fill="#5a3e6e" opacity="0.85"/>
<rect x="198.0" y="240.0" width="19.0" height="62.0" fill="#5a3e6e" opacity="0.85"/>
<rect x="216.0" y="240.0" width="19.0" height="62.0" fill="#5a3e6e" opacity="0.85"/>
<rect x="234.0" y="240.0" width="19.0" height="62.0" fill="#5a3e6e" opacity="0.85"/>
<rect x="252.0" y="240.0" width="19.0" height="62.0" fill="#5a3e6e" opacity="0.85"/>
<rect x="270.0" y="240.0" width="19.0" height="62.0" fill="#5a3e6e" opacity="0.85"/>
<rect x="288.0" y="240.0" width="19.0" height="62.0" fill="#5a3e6e" opacity="0.85"/>
<rect x="306.0" y="240.0" width="19.0" height="62.0" fill="#5a3e6e" opacity="0.85"/>
<rect x="324.0" y="240.0" width="19.0" height="62.0" fill="#5a3e6e" opacity="0.85"/>
<rect x="342.0" y="240.0" width="19.0" height="62.0" fill="#5a3e6e" opacity="0.85"/>
<rect x="360.0" y="240.0" width="19.0" height="62.0" fill="#5a3e6e" opacity="0.85"/>
<rect x="378.0" y="234.0" width="19.0" height="68.0" fill="#5a3e6e" opacity="0.85"/>
<rect x="396.0" y="234.0" width="19.0" height="68.0" fill="#5a3e6e" opacity="0.85"/>
<rect x="414.0" y="234.0" width="19.0" height="68.0" fill="#5a3e6e" opacity="0.85"/>
<rect x="432.0" y="234.0" width="19.0" height="68.0" fill="#5a3e6e" opacity="0.85"/>
<rect x="450.0" y="234.0" width="19.0" height="68.0" fill="#5a3e6e" opacity="0.85"/>
<rect x="468.0" y="234.0" width="19.0" height="68.0" fill="#5a3e6e" opacity="0.85"/>
<rect x="486.0" y="234.0" width="19.0" height="68.0" fill="#5a3e6e" opacity="0.85"/>
<rect x="504.0" y="234.0" width="19.0" height="68.0" fill="#5a3e6e" opacity="0.85"/>
<rect x="522.0" y="234.0" width="19.0" height="68.0" fill="#5a3e6e" opacity="0.85"/>
<rect x="540.0" y="234.0" width="19.0" height="68.0" fill="#5a3e6e" opacity="0.85"/>
<rect x="558.0" y="234.0" width="19.0" height="68.0" fill="#5a3e6e" opacity="0.85"/>
<rect x="576.0" y="234.0" width="19.0" height="68.0" fill="#5a3e6e" opacity="0.85"/>
<rect x="594.0" y="234.0" width="19.0" height="68.0" fill="#5a3e6e" opacity="0.85"/>
<rect x="612.0" y="228.0" width="19.0" height="74.0" fill="#5a3e6e" opacity="0.85"/>
<rect x="630.0" y="228.0" width="19.0" height="74.0" fill="#5a3e6e" opacity="0.85"/>
<rect x="648.0" y="228.0" width="19.0" height="74.0" fill="#5a3e6e" opacity="0.85"/>
<rect x="666.0" y="228.0" width="19.0" height="74.0" fill="#5a3e6e" opacity="0.85"/>
<rect x="684.0" y="228.0" width="19.0" height="74.0" fill="#5a3e6e" opacity="0.85"/>
<rect x="702.0" y="228.0" width="19.0" height="74.0" fill="#5a3e6e" opacity="0.85"/>
<rect x="720.0" y="228.0" width="19.0" height="74.0" fill="#5a3e6e" opacity="0.85"/>
<rect x="738.0" y="222.0" width="19.0" height="80.0" fill="#5a3e6e" opacity="0.85"/>
<rect x="756.0" y="222.0" width="19.0" height="80.0" fill="#5a3e6e" opacity="0.85"/>
<rect x="774.0" y="222.0" width="19.0" height="80.0" fill="#5a3e6e" opacity="0.85"/>
<rect x="792.0" y="216.0" width="19.0" height="86.0" fill="#5a3e6e" opacity="0.85"/>
<rect x="810.0" y="216.0" width="19.0" height="86.0" fill="#5a3e6e" opacity="0.85"/>
<rect x="828.0" y="216.0" width="19.0" height="86.0" fill="#5a3e6e" opacity="0.85"/>
<rect x="846.0" y="216.0" width="19.0" height="86.0" fill="#5a3e6e" opacity="0.85"/>
<rect x="864.0" y="216.0" width="19.0" height="86.0" fill="#5a3e6e" opacity="0.85"/>
<rect x="882.0" y="216.0" width="19.0" height="86.0" fill="#5a3e6e" opacity="0.85"/>
<rect x="900.0" y="210.0" width="19.0" height="92.0" fill="#5a3e6e" opacity="0.85"/>
<rect x="918.0" y="210.0" width="19.0" height="92.0" fill="#5a3e6e" opacity="0.85"/>
<rect x="936.0" y="210.0" width="19.0" height="92.0" fill="#5a3e6e" opacity="0.85"/>
<rect x="954.0" y="210.0" width="19.0" height="92.0" fill="#5a3e6e" opacity="0.85"/>
<rect x="972.0" y="210.0" width="19.0" height="92.0" fill="#5a3e6e" opacity="0.85"/>
<rect x="990.0" y="204.0" width="19.0" height="98.0" fill="#5a3e6e" opacity="0.85"/>
<rect x="1008.0" y="204.0" width="19.0" height="98.0" fill="#5a3e6e" opacity="0.85"/>
<rect x="1026.0" y="204.0" width="19.0" height="98.0" fill="#5a3e6e" opacity="0.85"/>
<rect x="1044.0" y="210.0" width="19.0" height="92.0" fill="#5a3e6e" opacity="0.85"/>
<rect x="1062.0" y="204.0" width="19.0" height="98.0" fill="#5a3e6e" opacity="0.85"/>
<rect x="1080.0" y="210.0" width="19.0" height="92.0" fill="#5a3e6e" opacity="0.85"/>
<rect x="1098.0" y="204.0" width="19.0" height="98.0" fill="#5a3e6e" opacity="0.85"/>
<rect x="1116.0" y="204.0" width="19.0" height="98.0" fill="#5a3e6e" opacity="0.85"/>
<rect x="1134.0" y="204.0" width="19.0" height="98.0" fill="#5a3e6e" opacity="0.85"/>
<rect x="1152.0" y="204.0" width="19.0" height="98.0" fill="#5a3e6e" opacity="0.85"/>
<rect x="1170.0" y="204.0" width="19.0" height="98.0" fill="#5a3e6e" opacity="0.85"/>
<rect x="1188.0" y="204.0" width="19.0" height="98.0" fill="#5a3e6e" opacity="0.85"/>
<rect x="1206.0" y="204.0" width="19.0" height="98.0" fill="#5a3e6e" opacity="0.85"/>
<rect x="0.0" y="216.0" width="19.0" height="86.0" fill="#402a56" opacity="0.9"/>
<rect x="18.0" y="216.0" width="19.0" height="86.0" fill="#402a56" opacity="0.9"/>
<rect x="36.0" y="216.0" width="19.0" height="86.0" fill="#402a56" opacity="0.9"/>
<rect x="54.0" y="216.0" width="19.0" height="86.0" fill="#402a56" opacity="0.9"/>
<rect x="72.0" y="216.0" width="19.0" height="86.0" fill="#402a56" opacity="0.9"/>
<rect x="90.0" y="216.0" width="19.0" height="86.0" fill="#402a56" opacity="0.9"/>
<rect x="108.0" y="216.0" width="19.0" height="86.0" fill="#402a56" opacity="0.9"/>
<rect x="126.0" y="216.0" width="19.0" height="86.0" fill="#402a56" opacity="0.9"/>
<rect x="144.0" y="222.0" width="19.0" height="80.0" fill="#402a56" opacity="0.9"/>
<rect x="162.0" y="222.0" width="19.0" height="80.0" fill="#402a56" opacity="0.9"/>
<rect x="180.0" y="222.0" width="19.0" height="80.0" fill="#402a56" opacity="0.9"/>
<rect x="198.0" y="222.0" width="19.0" height="80.0" fill="#402a56" opacity="0.9"/>
<rect x="216.0" y="222.0" width="19.0" height="80.0" fill="#402a56" opacity="0.9"/>
<rect x="234.0" y="222.0" width="19.0" height="80.0" fill="#402a56" opacity="0.9"/>
<rect x="252.0" y="222.0" width="19.0" height="80.0" fill="#402a56" opacity="0.9"/>
<rect x="270.0" y="228.0" width="19.0" height="74.0" fill="#402a56" opacity="0.9"/>
<rect x="288.0" y="228.0" width="19.0" height="74.0" fill="#402a56" opacity="0.9"/>
<rect x="306.0" y="228.0" width="19.0" height="74.0" fill="#402a56" opacity="0.9"/>
<rect x="324.0" y="228.0" width="19.0" height="74.0" fill="#402a56" opacity="0.9"/>
<rect x="342.0" y="234.0" width="19.0" height="68.0" fill="#402a56" opacity="0.9"/>
<rect x="360.0" y="234.0" width="19.0" height="68.0" fill="#402a56" opacity="0.9"/>
<rect x="378.0" y="234.0" width="19.0" height="68.0" fill="#402a56" opacity="0.9"/>
<rect x="396.0" y="234.0" width="19.0" height="68.0" fill="#402a56" opacity="0.9"/>
<rect x="414.0" y="240.0" width="19.0" height="62.0" fill="#402a56" opacity="0.9"/>
<rect x="432.0" y="240.0" width="19.0" height="62.0" fill="#402a56" opacity="0.9"/>
<rect x="450.0" y="240.0" width="19.0" height="62.0" fill="#402a56" opacity="0.9"/>
<rect x="468.0" y="246.0" width="19.0" height="56.0" fill="#402a56" opacity="0.9"/>
<rect x="486.0" y="246.0" width="19.0" height="56.0" fill="#402a56" opacity="0.9"/>
<rect x="504.0" y="252.0" width="19.0" height="50.0" fill="#402a56" opacity="0.9"/>
<rect x="522.0" y="246.0" width="19.0" height="56.0" fill="#402a56" opacity="0.9"/>
<rect x="540.0" y="252.0" width="19.0" height="50.0" fill="#402a56" opacity="0.9"/>
<rect x="558.0" y="252.0" width="19.0" height="50.0" fill="#402a56" opacity="0.9"/>
<rect x="576.0" y="252.0" width="19.0" height="50.0" fill="#402a56" opacity="0.9"/>
<rect x="594.0" y="252.0" width="19.0" height="50.0" fill="#402a56" opacity="0.9"/>
<rect x="612.0" y="252.0" width="19.0" height="50.0" fill="#402a56" opacity="0.9"/>
<rect x="630.0" y="258.0" width="19.0" height="44.0" fill="#402a56" opacity="0.9"/>
<rect x="648.0" y="258.0" width="19.0" height="44.0" fill="#402a56" opacity="0.9"/>
<rect x="666.0" y="258.0" width="19.0" height="44.0" fill="#402a56" opacity="0.9"/>
<rect x="684.0" y="258.0" width="19.0" height="44.0" fill="#402a56" opacity="0.9"/>
<rect x="702.0" y="258.0" width="19.0" height="44.0" fill="#402a56" opacity="0.9"/>
<rect x="720.0" y="258.0" width="19.0" height="44.0" fill="#402a56" opacity="0.9"/>
<rect x="738.0" y="258.0" width="19.0" height="44.0" fill="#402a56" opacity="0.9"/>
<rect x="756.0" y="252.0" width="19.0" height="50.0" fill="#402a56" opacity="0.9"/>
<rect x="774.0" y="252.0" width="19.0" height="50.0" fill="#402a56" opacity="0.9"/>
<rect x="792.0" y="258.0" width="19.0" height="44.0" fill="#402a56" opacity="0.9"/>
<rect x="810.0" y="252.0" width="19.0" height="50.0" fill="#402a56" opacity="0.9"/>
<rect x="828.0" y="252.0" width="19.0" height="50.0" fill="#402a56" opacity="0.9"/>
<rect x="846.0" y="252.0" width="19.0" height="50.0" fill="#402a56" opacity="0.9"/>
<rect x="864.0" y="252.0" width="19.0" height="50.0" fill="#402a56" opacity="0.9"/>
<rect x="882.0" y="258.0" width="19.0" height="44.0" fill="#402a56" opacity="0.9"/>
<rect x="900.0" y="258.0" width="19.0" height="44.0" fill="#402a56" opacity="0.9"/>
<rect x="918.0" y="258.0" width="19.0" height="44.0" fill="#402a56" opacity="0.9"/>
<rect x="936.0" y="258.0" width="19.0" height="44.0" fill="#402a56" opacity="0.9"/>
<rect x="954.0" y="258.0" width="19.0" height="44.0" fill="#402a56" opacity="0.9"/>
<rect x="972.0" y="258.0" width="19.0" height="44.0" fill="#402a56" opacity="0.9"/>
<rect x="990.0" y="258.0" width="19.0" height="44.0" fill="#402a56" opacity="0.9"/>
<rect x="1008.0" y="258.0" width="19.0" height="44.0" fill="#402a56" opacity="0.9"/>
<rect x="1026.0" y="258.0" width="19.0" height="44.0" fill="#402a56" opacity="0.9"/>
<rect x="1044.0" y="258.0" width="19.0" height="44.0" fill="#402a56" opacity="0.9"/>
<rect x="1062.0" y="258.0" width="19.0" height="44.0" fill="#402a56" opacity="0.9"/>
<rect x="1080.0" y="258.0" width="19.0" height="44.0" fill="#402a56" opacity="0.9"/>
<rect x="1098.0" y="258.0" width="19.0" height="44.0" fill="#402a56" opacity="0.9"/>
<rect x="1116.0" y="258.0" width="19.0" height="44.0" fill="#402a56" opacity="0.9"/>
<rect x="1134.0" y="264.0" width="19.0" height="38.0" fill="#402a56" opacity="0.9"/>
<rect x="1152.0" y="258.0" width="19.0" height="44.0" fill="#402a56" opacity="0.9"/>
<rect x="1170.0" y="258.0" width="19.0" height="44.0" fill="#402a56" opacity="0.9"/>
<rect x="1188.0" y="258.0" width="19.0" height="44.0" fill="#402a56" opacity="0.9"/>
<rect x="1206.0" y="258.0" width="19.0" height="44.0" fill="#402a56" opacity="0.9"/>
<rect x="0.0" y="252.0" width="19.0" height="50.0" fill="#281c3e" opacity="1.0"/>
<rect x="18.0" y="252.0" width="19.0" height="50.0" fill="#281c3e" opacity="1.0"/>
<rect x="36.0" y="246.0" width="19.0" height="56.0" fill="#281c3e" opacity="1.0"/>
<rect x="54.0" y="246.0" width="19.0" height="56.0" fill="#281c3e" opacity="1.0"/>
<rect x="72.0" y="252.0" width="19.0" height="50.0" fill="#281c3e" opacity="1.0"/>
<rect x="90.0" y="258.0" width="19.0" height="44.0" fill="#281c3e" opacity="1.0"/>
<rect x="108.0" y="264.0" width="19.0" height="38.0" fill="#281c3e" opacity="1.0"/>
<rect x="126.0" y="270.0" width="19.0" height="32.0" fill="#281c3e" opacity="1.0"/>
<rect x="144.0" y="270.0" width="19.0" height="32.0" fill="#281c3e" opacity="1.0"/>
<rect x="162.0" y="270.0" width="19.0" height="32.0" fill="#281c3e" opacity="1.0"/>
<rect x="180.0" y="264.0" width="19.0" height="38.0" fill="#281c3e" opacity="1.0"/>
<rect x="198.0" y="270.0" width="19.0" height="32.0" fill="#281c3e" opacity="1.0"/>
<rect x="216.0" y="270.0" width="19.0" height="32.0" fill="#281c3e" opacity="1.0"/>
<rect x="234.0" y="270.0" width="19.0" height="32.0" fill="#281c3e" opacity="1.0"/>
<rect x="252.0" y="270.0" width="19.0" height="32.0" fill="#281c3e" opacity="1.0"/>
<rect x="270.0" y="270.0" width="19.0" height="32.0" fill="#281c3e" opacity="1.0"/>
<rect x="288.0" y="270.0" width="19.0" height="32.0" fill="#281c3e" opacity="1.0"/>
<rect x="306.0" y="270.0" width="19.0" height="32.0" fill="#281c3e" opacity="1.0"/>
<rect x="324.0" y="264.0" width="19.0" height="38.0" fill="#281c3e" opacity="1.0"/>
<rect x="342.0" y="258.0" width="19.0" height="44.0" fill="#281c3e" opacity="1.0"/>
<rect x="360.0" y="252.0" width="19.0" height="50.0" fill="#281c3e" opacity="1.0"/>
<rect x="378.0" y="252.0" width="19.0" height="50.0" fill="#281c3e" opacity="1.0"/>
<rect x="396.0" y="246.0" width="19.0" height="56.0" fill="#281c3e" opacity="1.0"/>
<rect x="414.0" y="240.0" width="19.0" height="62.0" fill="#281c3e" opacity="1.0"/>
<rect x="432.0" y="240.0" width="19.0" height="62.0" fill="#281c3e" opacity="1.0"/>
<rect x="450.0" y="240.0" width="19.0" height="62.0" fill="#281c3e" opacity="1.0"/>
<rect x="468.0" y="240.0" width="19.0" height="62.0" fill="#281c3e" opacity="1.0"/>
<rect x="486.0" y="234.0" width="19.0" height="68.0" fill="#281c3e" opacity="1.0"/>
<rect x="504.0" y="234.0" width="19.0" height="68.0" fill="#281c3e" opacity="1.0"/>
<rect x="522.0" y="234.0" width="19.0" height="68.0" fill="#281c3e" opacity="1.0"/>
<rect x="540.0" y="228.0" width="19.0" height="74.0" fill="#281c3e" opacity="1.0"/>
<rect x="558.0" y="234.0" width="19.0" height="68.0" fill="#281c3e" opacity="1.0"/>
<rect x="576.0" y="240.0" width="19.0" height="62.0" fill="#281c3e" opacity="1.0"/>
<rect x="594.0" y="240.0" width="19.0" height="62.0" fill="#281c3e" opacity="1.0"/>
<rect x="612.0" y="246.0" width="19.0" height="56.0" fill="#281c3e" opacity="1.0"/>
<rect x="630.0" y="252.0" width="19.0" height="50.0" fill="#281c3e" opacity="1.0"/>
<rect x="648.0" y="258.0" width="19.0" height="44.0" fill="#281c3e" opacity="1.0"/>
<rect x="666.0" y="252.0" width="19.0" height="50.0" fill="#281c3e" opacity="1.0"/>
<rect x="684.0" y="258.0" width="19.0" height="44.0" fill="#281c3e" opacity="1.0"/>
<rect x="702.0" y="258.0" width="19.0" height="44.0" fill="#281c3e" opacity="1.0"/>
<rect x="720.0" y="258.0" width="19.0" height="44.0" fill="#281c3e" opacity="1.0"/>
<rect x="738.0" y="264.0" width="19.0" height="38.0" fill="#281c3e" opacity="1.0"/>
<rect x="756.0" y="264.0" width="19.0" height="38.0" fill="#281c3e" opacity="1.0"/>
<rect x="774.0" y="264.0" width="19.0" height="38.0" fill="#281c3e" opacity="1.0"/>
<rect x="792.0" y="264.0" width="19.0" height="38.0" fill="#281c3e" opacity="1.0"/>
<rect x="810.0" y="270.0" width="19.0" height="32.0" fill="#281c3e" opacity="1.0"/>
<rect x="828.0" y="270.0" width="19.0" height="32.0" fill="#281c3e" opacity="1.0"/>
<rect x="846.0" y="276.0" width="19.0" height="26.0" fill="#281c3e" opacity="1.0"/>
<rect x="864.0" y="276.0" width="19.0" height="26.0" fill="#281c3e" opacity="1.0"/>
<rect x="882.0" y="276.0" width="19.0" height="26.0" fill="#281c3e" opacity="1.0"/>
<rect x="900.0" y="270.0" width="19.0" height="32.0" fill="#281c3e" opacity="1.0"/>
<rect x="918.0" y="264.0" width="19.0" height="38.0" fill="#281c3e" opacity="1.0"/>
<rect x="936.0" y="264.0" width="19.0" height="38.0" fill="#281c3e" opacity="1.0"/>
<rect x="954.0" y="264.0" width="19.0" height="38.0" fill="#281c3e" opacity="1.0"/>
<rect x="972.0" y="258.0" width="19.0" height="44.0" fill="#281c3e" opacity="1.0"/>
<rect x="990.0" y="258.0" width="19.0" height="44.0" fill="#281c3e" opacity="1.0"/>
<rect x="1008.0" y="252.0" width="19.0" height="50.0" fill="#281c3e" opacity="1.0"/>
<rect x="1026.0" y="252.0" width="19.0" height="50.0" fill="#281c3e" opacity="1.0"/>
<rect x="1044.0" y="252.0" width="19.0" height="50.0" fill="#281c3e" opacity="1.0"/>
<rect x="1062.0" y="252.0" width="19.0" height="50.0" fill="#281c3e" opacity="1.0"/>
<rect x="1080.0" y="252.0" width="19.0" height="50.0" fill="#281c3e" opacity="1.0"/>
<rect x="1098.0" y="252.0" width="19.0" height="50.0" fill="#281c3e" opacity="1.0"/>
<rect x="1116.0" y="252.0" width="19.0" height="50.0" fill="#281c3e" opacity="1.0"/>
<rect x="1134.0" y="246.0" width="19.0" height="56.0" fill="#281c3e" opacity="1.0"/>
<rect x="1152.0" y="252.0" width="19.0" height="50.0" fill="#281c3e" opacity="1.0"/>
<rect x="1170.0" y="246.0" width="19.0" height="56.0" fill="#281c3e" opacity="1.0"/>
<rect x="1188.0" y="246.0" width="19.0" height="56.0" fill="#281c3e" opacity="1.0"/>
<rect x="1206.0" y="246.0" width="19.0" height="56.0" fill="#281c3e" opacity="1.0"/>
<rect x="0" y="286" width="1200" height="14" fill="#0d0a17"/>
<rect x="-14.0" y="222.0" width="8.0" height="19.5" fill="#0d0a17"/>
<rect x="-18.0" y="240.5" width="16.0" height="19.5" fill="#0d0a17"/>
<rect x="-22.0" y="259.0" width="24.0" height="19.5" fill="#0d0a17"/>
<rect x="-26.0" y="277.5" width="32.0" height="19.5" fill="#0d0a17"/>
<rect x="-12.2" y="295.0" width="4.5" height="11.8" fill="#0d0a17"/>
<rect x="19.0" y="222.0" width="8.0" height="19.5" fill="#0d0a17"/>
<rect x="15.0" y="240.5" width="16.0" height="19.5" fill="#0d0a17"/>
<rect x="11.0" y="259.0" width="24.0" height="19.5" fill="#0d0a17"/>
<rect x="7.0" y="277.5" width="32.0" height="19.5" fill="#0d0a17"/>
<rect x="20.8" y="295.0" width="4.5" height="11.8" fill="#0d0a17"/>
<rect x="47.5" y="239.0" width="9.0" height="15.2" fill="#0d0a17"/>
<rect x="43.0" y="253.2" width="18.0" height="15.2" fill="#0d0a17"/>
<rect x="38.5" y="267.5" width="27.0" height="15.2" fill="#0d0a17"/>
<rect x="34.0" y="281.8" width="36.0" height="15.2" fill="#0d0a17"/>
<rect x="49.5" y="295.0" width="5.0" height="9.1" fill="#0d0a17"/>
<rect x="81.8" y="220.0" width="8.5" height="20.0" fill="#0d0a17"/>
<rect x="77.5" y="239.0" width="17.0" height="20.0" fill="#0d0a17"/>
<rect x="73.2" y="258.0" width="25.5" height="20.0" fill="#0d0a17"/>
<rect x="69.0" y="277.0" width="34.0" height="20.0" fill="#0d0a17"/>
<rect x="83.6" y="295.0" width="4.8" height="12.2" fill="#0d0a17"/>
<rect x="110.1" y="244.0" width="7.8" height="14.0" fill="#0d0a17"/>
<rect x="106.2" y="257.0" width="15.5" height="14.0" fill="#0d0a17"/>
<rect x="102.4" y="270.0" width="23.2" height="14.0" fill="#0d0a17"/>
<rect x="98.5" y="283.0" width="31.0" height="14.0" fill="#0d0a17"/>
<rect x="111.8" y="295.0" width="4.3" height="8.3" fill="#0d0a17"/>
<rect x="140.9" y="241.0" width="6.2" height="14.8" fill="#0d0a17"/>
<rect x="137.8" y="254.8" width="12.5" height="14.8" fill="#0d0a17"/>
<rect x="134.6" y="268.5" width="18.8" height="14.8" fill="#0d0a17"/>
<rect x="131.5" y="282.2" width="25.0" height="14.8" fill="#0d0a17"/>
<rect x="142.2" y="295.0" width="3.5" height="8.8" fill="#0d0a17"/>
<rect x="173.9" y="248.0" width="8.2" height="13.0" fill="#0d0a17"/>
<rect x="169.8" y="260.0" width="16.5" height="13.0" fill="#0d0a17"/>
<rect x="165.6" y="272.0" width="24.8" height="13.0" fill="#0d0a17"/>
<rect x="161.5" y="284.0" width="33.0" height="13.0" fill="#0d0a17"/>
<rect x="175.7" y="295.0" width="4.6" height="7.7" fill="#0d0a17"/>
<rect x="205.8" y="222.0" width="8.5" height="19.5" fill="#0d0a17"/>
<rect x="201.5" y="240.5" width="17.0" height="19.5" fill="#0d0a17"/>
<rect x="197.2" y="259.0" width="25.5" height="19.5" fill="#0d0a17"/>
<rect x="193.0" y="277.5" width="34.0" height="19.5" fill="#0d0a17"/>
<rect x="207.6" y="295.0" width="4.8" height="11.8" fill="#0d0a17"/>
<rect x="234.0" y="250.0" width="8.0" height="12.5" fill="#0d0a17"/>
<rect x="230.0" y="261.5" width="16.0" height="12.5" fill="#0d0a17"/>
<rect x="226.0" y="273.0" width="24.0" height="12.5" fill="#0d0a17"/>
<rect x="222.0" y="284.5" width="32.0" height="12.5" fill="#0d0a17"/>
<rect x="235.8" y="295.0" width="4.5" height="7.4" fill="#0d0a17"/>
<rect x="262.0" y="247.0" width="6.0" height="13.2" fill="#0d0a17"/>
<rect x="259.0" y="259.2" width="12.0" height="13.2" fill="#0d0a17"/>
<rect x="256.0" y="271.5" width="18.0" height="13.2" fill="#0d0a17"/>
<rect x="253.0" y="283.8" width="24.0" height="13.2" fill="#0d0a17"/>
<rect x="263.3" y="295.0" width="3.4" height="7.8" fill="#0d0a17"/>
<rect x="289.9" y="235.0" width="8.2" height="16.2" fill="#0d0a17"/>
<rect x="285.8" y="250.2" width="16.5" height="16.2" fill="#0d0a17"/>
<rect x="281.6" y="265.5" width="24.8" height="16.2" fill="#0d0a17"/>
<rect x="277.5" y="280.8" width="33.0" height="16.2" fill="#0d0a17"/>
<rect x="291.7" y="295.0" width="4.6" height="9.8" fill="#0d0a17"/>
<rect x="316.4" y="221.0" width="7.2" height="19.8" fill="#0d0a17"/>
<rect x="312.8" y="239.8" width="14.5" height="19.8" fill="#0d0a17"/>
<rect x="309.1" y="258.5" width="21.8" height="19.8" fill="#0d0a17"/>
<rect x="305.5" y="277.2" width="29.0" height="19.8" fill="#0d0a17"/>
<rect x="318.0" y="295.0" width="4.1" height="12.0" fill="#0d0a17"/>
<rect x="349.0" y="238.0" width="8.0" height="15.5" fill="#0d0a17"/>
<rect x="345.0" y="252.5" width="16.0" height="15.5" fill="#0d0a17"/>
<rect x="341.0" y="267.0" width="24.0" height="15.5" fill="#0d0a17"/>
<rect x="337.0" y="281.5" width="32.0" height="15.5" fill="#0d0a17"/>
<rect x="350.8" y="295.0" width="4.5" height="9.3" fill="#0d0a17"/>
<rect x="378.1" y="232.0" width="7.8" height="17.0" fill="#0d0a17"/>
<rect x="374.2" y="248.0" width="15.5" height="17.0" fill="#0d0a17"/>
<rect x="370.4" y="264.0" width="23.2" height="17.0" fill="#0d0a17"/>
<rect x="366.5" y="280.0" width="31.0" height="17.0" fill="#0d0a17"/>
<rect x="379.8" y="295.0" width="4.3" height="10.2" fill="#0d0a17"/>
<rect x="404.1" y="245.0" width="7.8" height="13.8" fill="#0d0a17"/>
<rect x="400.2" y="257.8" width="15.5" height="13.8" fill="#0d0a17"/>
<rect x="396.4" y="270.5" width="23.2" height="13.8" fill="#0d0a17"/>
<rect x="392.5" y="283.2" width="31.0" height="13.8" fill="#0d0a17"/>
<rect x="405.8" y="295.0" width="4.3" height="8.2" fill="#0d0a17"/>
<rect x="434.0" y="224.0" width="8.0" height="19.0" fill="#0d0a17"/>
<rect x="430.0" y="242.0" width="16.0" height="19.0" fill="#0d0a17"/>
<rect x="426.0" y="260.0" width="24.0" height="19.0" fill="#0d0a17"/>
<rect x="422.0" y="278.0" width="32.0" height="19.0" fill="#0d0a17"/>
<rect x="435.8" y="295.0" width="4.5" height="11.5" fill="#0d0a17"/>
<rect x="461.4" y="234.0" width="7.2" height="16.5" fill="#0d0a17"/>
<rect x="457.8" y="249.5" width="14.5" height="16.5" fill="#0d0a17"/>
<rect x="454.1" y="265.0" width="21.8" height="16.5" fill="#0d0a17"/>
<rect x="450.5" y="280.5" width="29.0" height="16.5" fill="#0d0a17"/>
<rect x="463.0" y="295.0" width="4.1" height="9.9" fill="#0d0a17"/>
<rect x="490.5" y="218.0" width="7.0" height="20.5" fill="#0d0a17"/>
<rect x="487.0" y="237.5" width="14.0" height="20.5" fill="#0d0a17"/>
<rect x="483.5" y="257.0" width="21.0" height="20.5" fill="#0d0a17"/>
<rect x="480.0" y="276.5" width="28.0" height="20.5" fill="#0d0a17"/>
<rect x="492.0" y="295.0" width="3.9" height="12.5" fill="#0d0a17"/>
<rect x="515.9" y="246.0" width="8.2" height="13.5" fill="#0d0a17"/>
<rect x="511.8" y="258.5" width="16.5" height="13.5" fill="#0d0a17"/>
<rect x="507.6" y="271.0" width="24.8" height="13.5" fill="#0d0a17"/>
<rect x="503.5" y="283.5" width="33.0" height="13.5" fill="#0d0a17"/>
<rect x="517.7" y="295.0" width="4.6" height="8.0" fill="#0d0a17"/>
<rect x="543.9" y="225.0" width="6.2" height="18.8" fill="#0d0a17"/>
<rect x="540.8" y="242.8" width="12.5" height="18.8" fill="#0d0a17"/>
<rect x="537.6" y="260.5" width="18.8" height="18.8" fill="#0d0a17"/>
<rect x="534.5" y="278.2" width="25.0" height="18.8" fill="#0d0a17"/>
<rect x="545.2" y="295.0" width="3.5" height="11.4" fill="#0d0a17"/>
<rect x="573.9" y="226.0" width="6.2" height="18.5" fill="#0d0a17"/>
<rect x="570.8" y="243.5" width="12.5" height="18.5" fill="#0d0a17"/>
<rect x="567.6" y="261.0" width="18.8" height="18.5" fill="#0d0a17"/>
<rect x="564.5" y="278.5" width="25.0" height="18.5" fill="#0d0a17"/>
<rect x="575.2" y="295.0" width="3.5" height="11.2" fill="#0d0a17"/>
<rect x="599.6" y="250.0" width="6.8" height="12.5" fill="#0d0a17"/>
<rect x="596.2" y="261.5" width="13.5" height="12.5" fill="#0d0a17"/>
<rect x="592.9" y="273.0" width="20.2" height="12.5" fill="#0d0a17"/>
<rect x="589.5" y="284.5" width="27.0" height="12.5" fill="#0d0a17"/>
<rect x="601.1" y="295.0" width="3.8" height="7.4" fill="#0d0a17"/>
<rect x="628.1" y="247.0" width="7.8" height="13.2" fill="#0d0a17"/>
<rect x="624.2" y="259.2" width="15.5" height="13.2" fill="#0d0a17"/>
<rect x="620.4" y="271.5" width="23.2" height="13.2" fill="#0d0a17"/>
<rect x="616.5" y="283.8" width="31.0" height="13.2" fill="#0d0a17"/>
<rect x="629.8" y="295.0" width="4.3" height="7.8" fill="#0d0a17"/>
<rect x="660.2" y="225.0" width="7.5" height="18.8" fill="#0d0a17"/>
<rect x="656.5" y="242.8" width="15.0" height="18.8" fill="#0d0a17"/>
<rect x="652.8" y="260.5" width="22.5" height="18.8" fill="#0d0a17"/>
<rect x="649.0" y="278.2" width="30.0" height="18.8" fill="#0d0a17"/>
<rect x="661.9" y="295.0" width="4.2" height="11.4" fill="#0d0a17"/>
<rect x="686.5" y="238.0" width="9.0" height="15.5" fill="#0d0a17"/>
<rect x="682.0" y="252.5" width="18.0" height="15.5" fill="#0d0a17"/>
<rect x="677.5" y="267.0" width="27.0" height="15.5" fill="#0d0a17"/>
<rect x="673.0" y="281.5" width="36.0" height="15.5" fill="#0d0a17"/>
<rect x="688.5" y="295.0" width="5.0" height="9.3" fill="#0d0a17"/>
<rect x="717.9" y="229.0" width="6.2" height="17.8" fill="#0d0a17"/>
<rect x="714.8" y="245.8" width="12.5" height="17.8" fill="#0d0a17"/>
<rect x="711.6" y="262.5" width="18.8" height="17.8" fill="#0d0a17"/>
<rect x="708.5" y="279.2" width="25.0" height="17.8" fill="#0d0a17"/>
<rect x="719.2" y="295.0" width="3.5" height="10.7" fill="#0d0a17"/>
<rect x="748.0" y="229.0" width="6.0" height="17.8" fill="#0d0a17"/>
<rect x="745.0" y="245.8" width="12.0" height="17.8" fill="#0d0a17"/>
<rect x="742.0" y="262.5" width="18.0" height="17.8" fill="#0d0a17"/>
<rect x="739.0" y="279.2" width="24.0" height="17.8" fill="#0d0a17"/>
<rect x="749.3" y="295.0" width="3.4" height="10.7" fill="#0d0a17"/>
<rect x="779.8" y="243.0" width="6.5" height="14.2" fill="#0d0a17"/>
<rect x="776.5" y="256.2" width="13.0" height="14.2" fill="#0d0a17"/>
<rect x="773.2" y="269.5" width="19.5" height="14.2" fill="#0d0a17"/>
<rect x="770.0" y="282.8" width="26.0" height="14.2" fill="#0d0a17"/>
<rect x="781.2" y="295.0" width="3.6" height="8.5" fill="#0d0a17"/>
<rect x="809.0" y="244.0" width="6.0" height="14.0" fill="#0d0a17"/>
<rect x="806.0" y="257.0" width="12.0" height="14.0" fill="#0d0a17"/>
<rect x="803.0" y="270.0" width="18.0" height="14.0" fill="#0d0a17"/>
<rect x="800.0" y="283.0" width="24.0" height="14.0" fill="#0d0a17"/>
<rect x="810.3" y="295.0" width="3.4" height="8.3" fill="#0d0a17"/>
<rect x="833.5" y="221.0" width="9.0" height="19.8" fill="#0d0a17"/>
<rect x="829.0" y="239.8" width="18.0" height="19.8" fill="#0d0a17"/>
<rect x="824.5" y="258.5" width="27.0" height="19.8" fill="#0d0a17"/>
<rect x="820.0" y="277.2" width="36.0" height="19.8" fill="#0d0a17"/>
<rect x="835.5" y="295.0" width="5.0" height="12.0" fill="#0d0a17"/>
<rect x="866.8" y="239.0" width="8.5" height="15.2" fill="#0d0a17"/>
<rect x="862.5" y="253.2" width="17.0" height="15.2" fill="#0d0a17"/>
<rect x="858.2" y="267.5" width="25.5" height="15.2" fill="#0d0a17"/>
<rect x="854.0" y="281.8" width="34.0" height="15.2" fill="#0d0a17"/>
<rect x="868.6" y="295.0" width="4.8" height="9.1" fill="#0d0a17"/>
<rect x="901.1" y="238.0" width="7.8" height="15.5" fill="#0d0a17"/>
<rect x="897.2" y="252.5" width="15.5" height="15.5" fill="#0d0a17"/>
<rect x="893.4" y="267.0" width="23.2" height="15.5" fill="#0d0a17"/>
<rect x="889.5" y="281.5" width="31.0" height="15.5" fill="#0d0a17"/>
<rect x="902.8" y="295.0" width="4.3" height="9.3" fill="#0d0a17"/>
<rect x="934.6" y="238.0" width="8.8" height="15.5" fill="#0d0a17"/>
<rect x="930.2" y="252.5" width="17.5" height="15.5" fill="#0d0a17"/>
<rect x="925.9" y="267.0" width="26.2" height="15.5" fill="#0d0a17"/>
<rect x="921.5" y="281.5" width="35.0" height="15.5" fill="#0d0a17"/>
<rect x="936.5" y="295.0" width="4.9" height="9.3" fill="#0d0a17"/>
<rect x="962.8" y="224.0" width="8.5" height="19.0" fill="#0d0a17"/>
<rect x="958.5" y="242.0" width="17.0" height="19.0" fill="#0d0a17"/>
<rect x="954.2" y="260.0" width="25.5" height="19.0" fill="#0d0a17"/>
<rect x="950.0" y="278.0" width="34.0" height="19.0" fill="#0d0a17"/>
<rect x="964.6" y="295.0" width="4.8" height="11.5" fill="#0d0a17"/>
<rect x="995.2" y="243.0" width="7.5" height="14.2" fill="#0d0a17"/>
<rect x="991.5" y="256.2" width="15.0" height="14.2" fill="#0d0a17"/>
<rect x="987.8" y="269.5" width="22.5" height="14.2" fill="#0d0a17"/>
<rect x="984.0" y="282.8" width="30.0" height="14.2" fill="#0d0a17"/>
<rect x="996.9" y="295.0" width="4.2" height="8.5" fill="#0d0a17"/>
<rect x="1028.0" y="237.0" width="6.0" height="15.8" fill="#0d0a17"/>
<rect x="1025.0" y="251.8" width="12.0" height="15.8" fill="#0d0a17"/>
<rect x="1022.0" y="266.5" width="18.0" height="15.8" fill="#0d0a17"/>
<rect x="1019.0" y="281.2" width="24.0" height="15.8" fill="#0d0a17"/>
<rect x="1029.3" y="295.0" width="3.4" height="9.4" fill="#0d0a17"/>
<rect x="1058.0" y="231.0" width="6.0" height="17.2" fill="#0d0a17"/>
<rect x="1055.0" y="247.2" width="12.0" height="17.2" fill="#0d0a17"/>
<rect x="1052.0" y="263.5" width="18.0" height="17.2" fill="#0d0a17"/>
<rect x="1049.0" y="279.8" width="24.0" height="17.2" fill="#0d0a17"/>
<rect x="1059.3" y="295.0" width="3.4" height="10.4" fill="#0d0a17"/>
<rect x="1086.2" y="239.0" width="7.5" height="15.2" fill="#0d0a17"/>
<rect x="1082.5" y="253.2" width="15.0" height="15.2" fill="#0d0a17"/>
<rect x="1078.8" y="267.5" width="22.5" height="15.2" fill="#0d0a17"/>
<rect x="1075.0" y="281.8" width="30.0" height="15.2" fill="#0d0a17"/>
<rect x="1087.9" y="295.0" width="4.2" height="9.1" fill="#0d0a17"/>
<rect x="1113.8" y="248.0" width="6.5" height="13.0" fill="#0d0a17"/>
<rect x="1110.5" y="260.0" width="13.0" height="13.0" fill="#0d0a17"/>
<rect x="1107.2" y="272.0" width="19.5" height="13.0" fill="#0d0a17"/>
<rect x="1104.0" y="284.0" width="26.0" height="13.0" fill="#0d0a17"/>
<rect x="1115.2" y="295.0" width="3.6" height="7.7" fill="#0d0a17"/>
<rect x="1142.5" y="222.0" width="7.0" height="19.5" fill="#0d0a17"/>
<rect x="1139.0" y="240.5" width="14.0" height="19.5" fill="#0d0a17"/>
<rect x="1135.5" y="259.0" width="21.0" height="19.5" fill="#0d0a17"/>
<rect x="1132.0" y="277.5" width="28.0" height="19.5" fill="#0d0a17"/>
<rect x="1144.0" y="295.0" width="3.9" height="11.8" fill="#0d0a17"/>
<rect x="1168.5" y="229.0" width="7.0" height="17.8" fill="#0d0a17"/>
<rect x="1165.0" y="245.8" width="14.0" height="17.8" fill="#0d0a17"/>
<rect x="1161.5" y="262.5" width="21.0" height="17.8" fill="#0d0a17"/>
<rect x="1158.0" y="279.2" width="28.0" height="17.8" fill="#0d0a17"/>
<rect x="1170.0" y="295.0" width="3.9" height="10.7" fill="#0d0a17"/>
<rect x="1200.9" y="246.0" width="6.2" height="13.5" fill="#0d0a17"/>
<rect x="1197.8" y="258.5" width="12.5" height="13.5" fill="#0d0a17"/>
<rect x="1194.6" y="271.0" width="18.8" height="13.5" fill="#0d0a17"/>
<rect x="1191.5" y="283.5" width="25.0" height="13.5" fill="#0d0a17"/>
<rect x="1202.2" y="295.0" width="3.5" height="8.0" fill="#0d0a17"/>
<circle cx="653" cy="275" r="2.2" fill="#ffe873"><animateMotion path="M0,0 L-25,-17 L7,1 L0,0" dur="7.7s" begin="2.1s" repeatCount="indefinite"/><animate attributeName="opacity" values="0;1;0.2;1;0" dur="3.9s" begin="2.1s" repeatCount="indefinite"/></circle>
<circle cx="326" cy="268" r="2.2" fill="#ffe873"><animateMotion path="M0,0 L-18,-1 L-2,-18 L0,0" dur="6.9s" begin="1.8s" repeatCount="indefinite"/><animate attributeName="opacity" values="0;1;0.2;1;0" dur="3.5s" begin="1.8s" repeatCount="indefinite"/></circle>
<circle cx="110" cy="228" r="2.2" fill="#ffe873"><animateMotion path="M0,0 L-25,13 L-4,-17 L0,0" dur="8.1s" begin="2.9s" repeatCount="indefinite"/><animate attributeName="opacity" values="0;1;0.2;1;0" dur="4.0s" begin="2.9s" repeatCount="indefinite"/></circle>
<circle cx="795" cy="271" r="2.2" fill="#ffe873"><animateMotion path="M0,0 L-27,-5 L20,-16 L0,0" dur="8.4s" begin="2.6s" repeatCount="indefinite"/><animate attributeName="opacity" values="0;1;0.2;1;0" dur="4.2s" begin="2.6s" repeatCount="indefinite"/></circle>
<circle cx="502" cy="269" r="2.2" fill="#ffe873"><animateMotion path="M0,0 L-7,18 L18,5 L0,0" dur="9.9s" begin="1.1s" repeatCount="indefinite"/><animate attributeName="opacity" values="0;1;0.2;1;0" dur="5.0s" begin="1.1s" repeatCount="indefinite"/></circle>
<circle cx="703" cy="258" r="2.2" fill="#ffe873"><animateMotion path="M0,0 L-25,12 L-19,12 L0,0" dur="8.4s" begin="1.8s" repeatCount="indefinite"/><animate attributeName="opacity" values="0;1;0.2;1;0" dur="4.2s" begin="1.8s" repeatCount="indefinite"/></circle>
</svg>